<?xml version="1.0" encoding="iso-8859-1"?>
<!-- Generator: Adobe Illustrator 19.0.0, SVG Export Plug-In . SVG Version: 6.00 Build 0)  -->
<svg version="1.1" id="Capa_1" xmlns="http://www.w3.org/2000/svg"  x="0px" y="0px"
	 viewBox="0 0 480 480" style="enable-background:new 0 0 480 480;" xml:space="preserve">
<linearGradient id="SVGID_1_" gradientUnits="userSpaceOnUse" x1="-57.783" y1="551.625" x2="28.395" y2="551.625" gradientTransform="matrix(8 0 0 -8 455 4653)">
	<stop  offset="0" style="stop-color:#E93E3A"/>
	<stop  offset="0.354" style="stop-color:#ED683C"/>
	<stop  offset="0.707" style="stop-color:#F3903F"/>
	<stop  offset="1" style="stop-color:#FDC70C"/>
</linearGradient>
<path style="fill:url(#SVGID_1_);" d="M472,32H8c-4.418,0-8,3.582-8,8v304c0,4.418,3.582,8,8,8h160v48h-24c-4.418,0-8,3.582-8,8v32
	c0,4.418,3.582,8,8,8h192c4.418,0,8-3.582,8-8v-32c0-4.418-3.582-8-8-8h-24v-48h160c4.418,0,8-3.582,8-8V40
	C480,35.582,476.418,32,472,32z M328,432H152v-16h176V432z M296,400H184v-48h112V400z M464,336H16V48h448V336z"/>
<g>
	
		<linearGradient id="SVGID_2_" gradientUnits="userSpaceOnUse" x1="-57.783" y1="572.625" x2="28.395" y2="572.625" gradientTransform="matrix(8 0 0 -8 455 4653)">
		<stop  offset="0" style="stop-color:#E93E3A"/>
		<stop  offset="0.354" style="stop-color:#ED683C"/>
		<stop  offset="0.707" style="stop-color:#F3903F"/>
		<stop  offset="1" style="stop-color:#FDC70C"/>
	</linearGradient>
	<path style="fill:url(#SVGID_2_);" d="M32,64h416v16H32V64z"/>
	
		<linearGradient id="SVGID_3_" gradientUnits="userSpaceOnUse" x1="-57.783" y1="542.625" x2="28.395" y2="542.625" gradientTransform="matrix(8 0 0 -8 455 4653)">
		<stop  offset="0" style="stop-color:#E93E3A"/>
		<stop  offset="0.354" style="stop-color:#ED683C"/>
		<stop  offset="0.707" style="stop-color:#F3903F"/>
		<stop  offset="1" style="stop-color:#FDC70C"/>
	</linearGradient>
	<path style="fill:url(#SVGID_3_);" d="M32,304h416v16H32V304z"/>
	
		<linearGradient id="SVGID_4_" gradientUnits="userSpaceOnUse" x1="-57.783" y1="557.625" x2="28.395" y2="557.625" gradientTransform="matrix(8 0 0 -8 455 4653)">
		<stop  offset="0" style="stop-color:#E93E3A"/>
		<stop  offset="0.354" style="stop-color:#ED683C"/>
		<stop  offset="0.707" style="stop-color:#F3903F"/>
		<stop  offset="1" style="stop-color:#FDC70C"/>
	</linearGradient>
	<path style="fill:url(#SVGID_4_);" d="M88,192c0,35.346,28.654,64,64,64s64-28.654,64-64s-28.654-64-64-64
		C116.67,128.04,88.04,156.67,88,192z M161.752,208h-19.504l-5.12-20.472L152,177.6l14.872,9.912L161.752,208z M144,144.72v19
		l-16.568,11.048l-16.136-8.088C118.553,155.018,130.459,147.023,144,144.72z M104,192c0.008-3.532,0.408-7.052,1.192-10.496
		l15.944,8l6.008,24l-10.648,10.648C108.471,215.365,104.015,203.9,104,192z M129.12,234.192L139.312,224h25.424l10.304,10.088
		C160.748,241.933,143.447,241.973,129.12,234.192L129.12,234.192z M187.64,224.04l-10.768-10.552l5.992-24l15.944-8
		c3.451,15.157-0.732,31.044-11.2,42.536L187.64,224.04z M192.704,166.68l-16.136,8.088L160,163.72v-19
		C173.541,147.023,185.447,155.018,192.704,166.68L192.704,166.68z"/>
	
		<linearGradient id="SVGID_5_" gradientUnits="userSpaceOnUse" x1="-57.783" y1="558.625" x2="28.395" y2="558.625" gradientTransform="matrix(8 0 0 -8 455 4653)">
		<stop  offset="0" style="stop-color:#E93E3A"/>
		<stop  offset="0.354" style="stop-color:#ED683C"/>
		<stop  offset="0.707" style="stop-color:#F3903F"/>
		<stop  offset="1" style="stop-color:#FDC70C"/>
	</linearGradient>
	<path style="fill:url(#SVGID_5_);" d="M240,152v56c0,4.418,3.582,8,8,8h32v-16h-24v-48H240z"/>
	
		<linearGradient id="SVGID_6_" gradientUnits="userSpaceOnUse" x1="-57.783" y1="558.625" x2="28.395" y2="558.625" gradientTransform="matrix(8 0 0 -8 455 4653)">
		<stop  offset="0" style="stop-color:#E93E3A"/>
		<stop  offset="0.354" style="stop-color:#ED683C"/>
		<stop  offset="0.707" style="stop-color:#F3903F"/>
		<stop  offset="1" style="stop-color:#FDC70C"/>
	</linearGradient>
	<path style="fill:url(#SVGID_6_);" d="M296,152h16v64h-16V152z"/>
	
		<linearGradient id="SVGID_7_" gradientUnits="userSpaceOnUse" x1="-57.783" y1="558.6251" x2="28.395" y2="558.6251" gradientTransform="matrix(8 0 0 -8 455 4653)">
		<stop  offset="0" style="stop-color:#E93E3A"/>
		<stop  offset="0.354" style="stop-color:#ED683C"/>
		<stop  offset="0.707" style="stop-color:#F3903F"/>
		<stop  offset="1" style="stop-color:#FDC70C"/>
	</linearGradient>
	<path style="fill:url(#SVGID_7_);" d="M328,152v40c0,2.122,0.844,4.156,2.344,5.656l16,16c3.124,3.123,8.188,3.123,11.312,0l16-16
		c1.5-1.5,2.344-3.534,2.344-5.656v-40h-16v36.688l-8,8l-8-8V152H328z"/>
	
		<linearGradient id="SVGID_8_" gradientUnits="userSpaceOnUse" x1="-57.783" y1="558.625" x2="28.395" y2="558.625" gradientTransform="matrix(8 0 0 -8 455 4653)">
		<stop  offset="0" style="stop-color:#E93E3A"/>
		<stop  offset="0.354" style="stop-color:#ED683C"/>
		<stop  offset="0.707" style="stop-color:#F3903F"/>
		<stop  offset="1" style="stop-color:#FDC70C"/>
	</linearGradient>
	<path style="fill:url(#SVGID_8_);" d="M432,168v-16h-32c-4.418,0-8,3.582-8,8v48c0,4.418,3.582,8,8,8h32v-16h-24v-8h24v-16h-24v-8
		H432z"/>
</g>
<g>
</g>
<g>
</g>
<g>
</g>
<g>
</g>
<g>
</g>
<g>
</g>
<g>
</g>
<g>
</g>
<g>
</g>
<g>
</g>
<g>
</g>
<g>
</g>
<g>
</g>
<g>
</g>
<g>
</g>
</svg>
